<?xml version="1.0" encoding="utf-8"?>
<svg width="632" height="293" viewBox="0 0 632 293" xmlns="http://www.w3.org/2000/svg">
<rect id="frame" x="0" y="0" width="632" height="293" fill="#f7f7f7" stroke="none" stroke-width="0"/>

<!-- Association Acting in -->
<g class="page_0_m7UTgSmh diagram_page" visibility="visible">
	<line x1="411" y1="184" x2="316" y2="109" stroke="#de77ae" stroke-width="2"/>
	<text x="360" y="176.15" fill="#4d9221" font-family="Verdana" font-size="12">0,N</text>
	<line x1="316" y1="34" x2="316" y2="109" stroke="#de77ae" stroke-width="2"/>
	<text x="321" y="76" fill="#4d9221" font-family="Verdana" font-size="12">0,N</text>
	<g>
		<path d="M336 84 a14 14 90 0 1 14 14 V109 h-68 V98 a14 14 90 0 1 14 -14" fill="#f1b6da" stroke="#f1b6da" stroke-width="0"/>
		<path d="M350 109 v11 a14 14 90 0 1 -14 14 H296 a14 14 90 0 1 -14 -14 V109 H68" fill="#fde0ef" stroke="#fde0ef" stroke-width="0"/>
		<rect x="282" y="84" width="68" height="50" fill="none" rx="14" stroke="#de77ae" stroke-width="2"/>
		<line x1="282" y1="109" x2="350" y2="109" stroke="#de77ae" stroke-width="1"/>
		<text x="289" y="101.75" fill="#000" font-family="Verdana" font-size="12">Acting in</text>
		<text x="289" y="126.8" fill="#000" font-family="Verdana" font-size="12">role</text>
	</g>
</g>

<!-- Association published -->
<g class="page_0_m7UTgSmh diagram_page" visibility="visible">
	<line x1="29" y1="184" x2="118" y2="184" stroke="#de77ae" stroke-width="2"/>
	<text x="54" y="201" fill="#4d9221" font-family="Verdana" font-size="12">0,N</text>
	<line x1="216" y1="184" x2="118" y2="184" stroke="#de77ae" stroke-width="2"/>
	<text x="161" y="201" fill="#4d9221" font-family="Verdana" font-size="12">1,1</text>
	<g>
		<path d="M141 159 a14 14 90 0 1 14 14 V184 h-74 V173 a14 14 90 0 1 14 -14" fill="#f1b6da" stroke="#f1b6da" stroke-width="0"/>
		<path d="M155 184 v11 a14 14 90 0 1 -14 14 H95 a14 14 90 0 1 -14 -14 V184 H74" fill="#fde0ef" stroke="#fde0ef" stroke-width="0"/>
		<rect x="81" y="159" width="74" height="50" fill="none" rx="14" stroke="#de77ae" stroke-width="2"/>
		<line x1="81" y1="184" x2="155" y2="184" stroke="#de77ae" stroke-width="1"/>
		<text x="89" y="176.75" fill="#000" font-family="Verdana" font-size="12">published</text>
	</g>
</g>

<!-- Association written on -->
<g class="page_0_m7UTgSmh diagram_page" visibility="visible">
	<line x1="411" y1="184" x2="316" y2="184" stroke="#de77ae" stroke-width="2"/>
	<text x="360" y="201" fill="#4d9221" font-family="Verdana" font-size="12">0,N</text>
	<line x1="216" y1="184" x2="316" y2="184" stroke="#de77ae" stroke-width="2"/>
	<text x="250" y="201" fill="#4d9221" font-family="Verdana" font-size="12">1,1</text>
	<g>
		<path d="M341 159 a14 14 90 0 1 14 14 V184 h-78 V173 a14 14 90 0 1 14 -14" fill="#f1b6da" stroke="#f1b6da" stroke-width="0"/>
		<path d="M355 184 v11 a14 14 90 0 1 -14 14 H291 a14 14 90 0 1 -14 -14 V184 H78" fill="#fde0ef" stroke="#fde0ef" stroke-width="0"/>
		<rect x="277" y="159" width="78" height="50" fill="none" rx="14" stroke="#de77ae" stroke-width="2"/>
		<line x1="277" y1="184" x2="355" y2="184" stroke="#de77ae" stroke-width="1"/>
		<text x="285" y="176.75" fill="#000" font-family="Verdana" font-size="12">written on</text>
	</g>
</g>

<!-- Association belongs to -->
<g class="page_0_m7UTgSmh diagram_page" visibility="visible">
	<line x1="411" y1="184" x2="506" y2="184" stroke="#de77ae" stroke-width="2"/>
	<text x="440" y="201" fill="#4d9221" font-family="Verdana" font-size="12">1,N</text>
	<line x1="600" y1="184" x2="506" y2="184" stroke="#de77ae" stroke-width="2"/>
	<text x="550" y="201" fill="#4d9221" font-family="Verdana" font-size="12">0,N</text>
	<g>
		<path d="M531 159 a14 14 90 0 1 14 14 V184 h-78 V173 a14 14 90 0 1 14 -14" fill="#f1b6da" stroke="#f1b6da" stroke-width="0"/>
		<path d="M545 184 v11 a14 14 90 0 1 -14 14 H481 a14 14 90 0 1 -14 -14 V184 H78" fill="#fde0ef" stroke="#fde0ef" stroke-width="0"/>
		<rect x="467" y="159" width="78" height="50" fill="none" rx="14" stroke="#de77ae" stroke-width="2"/>
		<line x1="467" y1="184" x2="545" y2="184" stroke="#de77ae" stroke-width="1"/>
		<text x="474" y="176.75" fill="#000" font-family="Verdana" font-size="12">belongs to</text>
	</g>
</g>

<!-- Association has -->
<g class="page_0_m7UTgSmh diagram_page" visibility="visible">
	<line x1="411" y1="184" x2="216" y2="259" stroke="#de77ae" stroke-width="2"/>
	<text x="360" y="188.24" fill="#4d9221" font-family="Verdana" font-size="12">0,N</text>
	<line x1="316" y1="259" x2="216" y2="259" stroke="#de77ae" stroke-width="2"/>
	<text x="263" y="276" fill="#4d9221" font-family="Verdana" font-size="12">1,1</text>
	<g>
		<path d="M220 234 a14 14 90 0 1 14 14 V259 h-36 V248 a14 14 90 0 1 14 -14" fill="#f1b6da" stroke="#f1b6da" stroke-width="0"/>
		<path d="M234 259 v11 a14 14 90 0 1 -14 14 H212 a14 14 90 0 1 -14 -14 V259 H36" fill="#fde0ef" stroke="#fde0ef" stroke-width="0"/>
		<rect x="198" y="234" width="36" height="50" fill="none" rx="14" stroke="#de77ae" stroke-width="2"/>
		<line x1="198" y1="259" x2="234" y2="259" stroke="#de77ae" stroke-width="1"/>
		<text x="205" y="251.75" fill="#000" font-family="Verdana" font-size="12">has</text>
	</g>
</g>

<!-- Entity actor -->
<g class="page_0_m7UTgSmh diagram_page" visibility="visible">
	<g>
		<rect x="295" y="9" width="42" height="25" fill="#b8e186" stroke="#b8e186" stroke-width="0" opacity="1"/>
		<rect x="295" y="34" width="42" height="25" fill="#e6f5d0" stroke="#e6f5d0" stroke-width="0" opacity="1"/>
		<rect x="295" y="9" width="42" height="50" fill="none" stroke="#7fbc41" stroke-width="2" opacity="1"/>
		<line x1="295" y1="34" x2="337" y2="34" stroke="#7fbc41" stroke-width="1"/>
	</g>
	<text x="300" y="26.75" fill="#000" font-family="Verdana" font-size="12">actor</text>
	<text x="300" y="51.8" fill="#000" font-family="Verdana" font-size="12">code</text>
	<line x1="300" y1="54" x2="329" y2="54" stroke="#000" stroke-width="1"/>
</g>

<!-- Entity user -->
<g class="page_0_m7UTgSmh diagram_page" visibility="visible">
	<g>
		<rect x="9" y="159" width="40" height="25" fill="#b8e186" stroke="#b8e186" stroke-width="0" opacity="1"/>
		<rect x="9" y="184" width="40" height="25" fill="#e6f5d0" stroke="#e6f5d0" stroke-width="0" opacity="1"/>
		<rect x="9" y="159" width="40" height="50" fill="none" stroke="#7fbc41" stroke-width="2" opacity="1"/>
		<line x1="9" y1="184" x2="49" y2="184" stroke="#7fbc41" stroke-width="1"/>
	</g>
	<text x="16" y="176.75" fill="#000" font-family="Verdana" font-size="12">user</text>
	<text x="14" y="201.8" fill="#000" font-family="Verdana" font-size="12">code</text>
	<line x1="14" y1="204" x2="43" y2="204" stroke="#000" stroke-width="1"/>
</g>

<!-- Entity reviews -->
<g class="page_0_m7UTgSmh diagram_page" visibility="visible">
	<g>
		<rect x="187" y="159" width="58" height="25" fill="#b8e186" stroke="#b8e186" stroke-width="0" opacity="1"/>
		<rect x="187" y="184" width="58" height="25" fill="#e6f5d0" stroke="#e6f5d0" stroke-width="0" opacity="1"/>
		<rect x="187" y="159" width="58" height="50" fill="none" stroke="#7fbc41" stroke-width="2" opacity="1"/>
		<line x1="187" y1="184" x2="245" y2="184" stroke="#7fbc41" stroke-width="1"/>
	</g>
	<text x="193" y="176.75" fill="#000" font-family="Verdana" font-size="12">reviews</text>
	<text x="192" y="201.8" fill="#000" font-family="Verdana" font-size="12">code</text>
	<line x1="192" y1="204" x2="221" y2="204" stroke="#000" stroke-width="1"/>
</g>

<!-- Entity movie -->
<g class="page_0_m7UTgSmh diagram_page" visibility="visible">
	<g>
		<rect x="387" y="159" width="48" height="25" fill="#b8e186" stroke="#b8e186" stroke-width="0" opacity="1"/>
		<rect x="387" y="184" width="48" height="25" fill="#e6f5d0" stroke="#e6f5d0" stroke-width="0" opacity="1"/>
		<rect x="387" y="159" width="48" height="50" fill="none" stroke="#7fbc41" stroke-width="2" opacity="1"/>
		<line x1="387" y1="184" x2="435" y2="184" stroke="#7fbc41" stroke-width="1"/>
	</g>
	<text x="392" y="176.75" fill="#000" font-family="Verdana" font-size="12">movie</text>
	<text x="392" y="201.8" fill="#000" font-family="Verdana" font-size="12">code</text>
	<line x1="392" y1="204" x2="421" y2="204" stroke="#000" stroke-width="1"/>
</g>

<!-- Entity genre -->
<g class="page_0_m7UTgSmh diagram_page" visibility="visible">
	<g>
		<rect x="577" y="159" width="46" height="25" fill="#b8e186" stroke="#b8e186" stroke-width="0" opacity="1"/>
		<rect x="577" y="184" width="46" height="25" fill="#e6f5d0" stroke="#e6f5d0" stroke-width="0" opacity="1"/>
		<rect x="577" y="159" width="46" height="50" fill="none" stroke="#7fbc41" stroke-width="2" opacity="1"/>
		<line x1="577" y1="184" x2="623" y2="184" stroke="#7fbc41" stroke-width="1"/>
	</g>
	<text x="582" y="176.75" fill="#000" font-family="Verdana" font-size="12">genre</text>
	<text x="582" y="201.8" fill="#000" font-family="Verdana" font-size="12">code</text>
	<line x1="582" y1="204" x2="611" y2="204" stroke="#000" stroke-width="1"/>
</g>

<!-- Entity season -->
<g class="page_0_m7UTgSmh diagram_page" visibility="visible">
	<g>
		<rect x="289" y="234" width="54" height="25" fill="#b8e186" stroke="#b8e186" stroke-width="0" opacity="1"/>
		<rect x="289" y="259" width="54" height="25" fill="#e6f5d0" stroke="#e6f5d0" stroke-width="0" opacity="1"/>
		<rect x="289" y="234" width="54" height="50" fill="none" stroke="#7fbc41" stroke-width="2" opacity="1"/>
		<line x1="289" y1="259" x2="343" y2="259" stroke="#7fbc41" stroke-width="1"/>
	</g>
	<text x="295" y="251.75" fill="#000" font-family="Verdana" font-size="12">season</text>
	<text x="294" y="276.8" fill="#000" font-family="Verdana" font-size="12">code</text>
	<line x1="294" y1="279" x2="323" y2="279" stroke="#000" stroke-width="1"/>
</g>
</svg>